<svg width="25" height="32" viewBox="0 0 25 32" fill="none" xmlns="http://www.w3.org/2000/svg">
<style>
	@media (prefers-color-scheme: dark) {
    path:nth-of-type(2) {
      fill: #FF5A5A;
    }
  }
</style>
<path d="M19.1933 1.76756C17.2688 2.54918 15.3653 3.33081 13.5286 4.231C11.6949 5.10452 9.94506 6.14431 8.301 7.33732C6.66992 8.50782 5.25597 9.95465 4.12304 11.6124C3.56801 12.4514 3.1134 13.3526 2.76856 14.2977C2.59454 14.7763 2.44756 15.2642 2.32834 15.7593C2.26707 16.0086 2.21548 16.2594 2.16711 16.5135C2.11873 16.7676 2.08003 17.0225 2.04133 17.2798C2.01795 17.0209 2.00989 16.7603 2.00666 16.499C2.00344 16.2376 2.01633 15.9763 2.03407 15.7141C2.0711 15.188 2.14791 14.6654 2.26385 14.1509C2.50068 13.1112 2.88455 12.1105 3.40388 11.1793C3.92623 10.2466 4.55854 9.38002 5.28726 8.59808C5.64845 8.20606 6.03221 7.83662 6.42807 7.48171C6.82394 7.12679 7.23997 6.79688 7.66406 6.47987C9.36823 5.24104 11.2253 4.22785 13.1892 3.46551C15.1278 2.69717 17.1395 2.12825 19.1933 1.76756Z" fill="#2C6C60"/>
<path d="M4.48098 15.9819C-0.114597 21.5476 11.5017 31.9636 13.4391 24.4579C14.6485 19.3697 9.08138 11.6173 3.99964 16.2223" fill="#C82E2E"/>
<path d="M1.80022 23.1698C1.75668 23.4868 1.69703 23.799 1.63898 24.1095L1.45917 25.0363C1.34066 25.651 1.22537 26.2608 1.13668 26.8674C1.04437 27.4573 1.00122 28.0538 1.00768 28.6508C1.01205 28.9255 1.04611 29.1989 1.10927 29.4663C1.13818 29.5858 1.17786 29.7024 1.22779 29.8148C1.23989 29.8406 1.25278 29.8672 1.26568 29.8954L1.28583 29.9317L1.31406 29.9801C1.34147 30.0253 1.37695 30.0802 1.41243 30.1269C1.55561 30.3226 1.7369 30.4872 1.94536 30.6109C2.17109 30.747 2.41557 30.8492 2.67097 30.9142C3.23548 31.0524 3.81632 31.1121 4.39713 31.0917C5.0096 31.0769 5.62082 31.029 6.2281 30.9481C6.53689 30.9102 6.8465 30.8674 7.15771 30.8207C7.46892 30.7739 7.78092 30.7263 8.09778 30.6835C7.81882 30.8392 7.53341 30.9779 7.23994 31.1062C6.94647 31.2344 6.65059 31.3482 6.34824 31.4579C5.73707 31.6737 5.10667 31.8307 4.46565 31.9265C4.3044 31.9491 4.13832 31.9677 3.97304 31.9814C3.80777 31.9951 3.64008 31.9999 3.47077 31.9999C3.12528 32.002 2.78052 31.9682 2.442 31.8991C2.08273 31.8258 1.737 31.6971 1.41725 31.5176C1.08249 31.324 0.79107 31.0638 0.561034 30.7529C0.503078 30.6734 0.449248 30.591 0.399776 30.5061L0.36592 30.4464L0.33044 30.3794C0.307059 30.335 0.286108 30.2899 0.265951 30.2447C0.189272 30.0696 0.130374 29.8872 0.0901766 29.7002C0.0190874 29.3533 -0.0101475 28.9991 0.0031011 28.6452C0.0145122 28.3105 0.0498175 27.977 0.108728 27.6474C0.163553 27.3247 0.238526 27.0021 0.323182 26.6931C0.676096 25.4649 1.17183 24.2824 1.80022 23.1698Z" fill="#2C6C60"/>
<path d="M8.35255 11.9948C8.60087 11.7522 8.87073 11.5327 9.1588 11.339C9.44978 11.1452 9.75455 10.9729 10.0707 10.8236C10.7084 10.5266 11.3794 10.3073 12.0693 10.1702C13.458 9.9008 14.8825 9.87133 16.2811 10.0831C16.9832 10.1846 17.676 10.3419 18.3532 10.5533C19.0356 10.7636 19.6982 11.0335 20.3333 11.36C20.9767 11.6903 21.5827 12.089 22.1409 12.5489C22.7096 13.0183 23.2088 13.5661 23.6236 14.1759C23.8303 14.4866 24.0099 14.8145 24.1605 15.1559C24.6214 16.1933 24.7683 17.3431 24.583 18.4631C24.4621 19.1898 24.231 19.8938 23.8977 20.5507C23.7363 20.8738 23.5559 21.187 23.3575 21.4888C23.1597 21.7872 22.9472 22.0755 22.7206 22.3527C21.8172 23.4405 20.7403 24.3715 19.5335 25.1081C18.9394 25.4751 18.3156 25.7916 17.6687 26.0543C17.3462 26.1833 17.018 26.2963 16.6859 26.3987C16.3541 26.4962 16.0168 26.5735 15.6757 26.6302C16.9581 26.1686 18.1605 25.5091 19.2392 24.6758C20.3127 23.873 21.2633 22.9179 22.0611 21.8405C22.2554 21.5735 22.4368 21.2976 22.6021 21.0153C22.7683 20.7353 22.9185 20.446 23.0519 20.149C23.3173 19.5673 23.4971 18.9503 23.5857 18.3171C23.7138 17.3879 23.5789 16.4414 23.1963 15.5851C23.0678 15.2986 22.9151 15.0237 22.7399 14.7631C22.3833 14.2342 21.9546 13.7577 21.4661 13.3475C20.97 12.9262 20.4321 12.5567 19.8609 12.2448C17.5005 10.9785 14.8203 10.4338 12.1532 10.6784C11.4838 10.746 10.8233 10.8839 10.1827 11.0897C9.86071 11.1944 9.54656 11.322 9.24265 11.4713C8.93245 11.6217 8.63479 11.7968 8.35255 11.9948Z" fill="#2C6C60"/>
<path d="M14.8928 29.7841C14.8441 29.7789 14.7956 29.7711 14.7477 29.7607C14.7017 29.7486 14.6558 29.7365 14.6098 29.7228C14.5197 29.6945 14.4321 29.6589 14.3478 29.6163C14.2607 29.4776 14.1736 29.3413 14.0995 29.1993C13.9556 28.9226 13.8275 28.6379 13.7157 28.3467C13.6036 28.0644 13.4996 27.7877 13.3819 27.5304C13.3251 27.4049 13.2613 27.2826 13.1908 27.1642C13.1965 27.0835 13.1989 27.0029 13.2013 26.9125C13.2013 26.8681 13.2013 26.8246 13.2013 26.7794C13.2013 26.7343 13.2013 26.6875 13.2013 26.6375C13.2496 26.6441 13.2975 26.6535 13.3448 26.6657C13.3907 26.6786 13.4359 26.6939 13.4819 26.7109C13.5713 26.7449 13.6579 26.7862 13.7407 26.8343C13.8236 26.9733 13.8987 27.1168 13.9656 27.2642C14.097 27.5514 14.2035 27.8369 14.3131 28.1112C14.416 28.38 14.5338 28.6429 14.6662 28.8984C14.7295 29.021 14.802 29.1386 14.8831 29.2501L14.8879 29.505L14.8928 29.7841Z" fill="#2C6C60"/>
<path d="M11.7468 28.087C11.7872 28.0991 11.8218 28.1144 11.8589 28.1273L11.9605 28.1668C12.0282 28.1926 12.0895 28.2193 12.1491 28.2475C12.1782 28.337 12.2209 28.4217 12.2588 28.5096C12.3394 28.6839 12.4257 28.8589 12.5136 29.0372C12.6015 29.2154 12.6926 29.3961 12.778 29.5833C12.8208 29.6768 12.8627 29.772 12.9022 29.8688C12.8547 30.0104 12.7906 30.1458 12.7111 30.2721C12.5579 30.2189 12.4362 30.164 12.308 30.1108C12.2725 30.0237 12.2338 29.9366 12.1943 29.8495C12.1137 29.6752 12.0266 29.4994 11.9379 29.3219C11.8492 29.1445 11.7589 28.9622 11.6735 28.775C11.6291 28.6815 11.5928 28.5847 11.5469 28.4895C11.5693 28.4214 11.5963 28.3548 11.6275 28.2902L11.6783 28.1894C11.7041 28.1539 11.7219 28.1217 11.7468 28.087Z" fill="#2C6C60"/>
<path d="M20.5349 1.27551C21.7442 -0.418407 24.163 -0.660393 23.9211 2.00147C23.2578 2.27835 22.523 2.33371 21.8257 2.15932C21.1285 1.98493 20.5061 1.5901 20.0511 1.03352" fill="#2C6C60"/>
</svg>
